<?xml version="1.0" standalone="no"?>
<!DOCTYPE svg PUBLIC "-//W3C//DTD SVG 20010904//EN"
 "http://www.w3.org/TR/2001/REC-SVG-20010904/DTD/svg10.dtd">
<svg version="1.0" xmlns="http://www.w3.org/2000/svg"
 width="512.000000pt" height="512.000000pt" viewBox="0 0 512.000000 512.000000"
 preserveAspectRatio="xMidYMid meet">

<g transform="translate(0.000000,512.000000) scale(0.100000,-0.100000)"
fill="#000000" stroke="none">
<path d="M2148 5104 c-125 -30 -235 -107 -307 -215 -60 -89 -80 -167 -88 -331
l-6 -138 -721 0 c-487 0 -734 -4 -761 -11 -112 -30 -160 -164 -88 -249 44 -52
70 -60 203 -60 l120 0 0 -1557 c0 -950 4 -1591 10 -1643 39 -341 237 -621 553
-780 110 -56 191 -82 321 -105 129 -22 2213 -23 2351 0 238 38 457 153 615
322 149 159 235 345 260 563 6 52 10 693 10 1643 l0 1557 120 0 c133 0 159 8
203 60 72 85 24 219 -88 249 -27 7 -274 11 -761 11 l-721 0 -6 138 c-8 164
-28 242 -88 331 -72 109 -183 186 -310 216 -89 20 -735 20 -821 -1z m793 -327
c28 -15 54 -40 73 -70 27 -43 29 -56 34 -167 l5 -120 -493 0 -493 0 5 118 c7
157 36 214 129 251 13 6 174 10 360 10 333 1 336 1 380 -22z m1354 -2277 c0
-1794 6 -1642 -77 -1803 -77 -147 -229 -274 -395 -331 -138 -47 -152 -47
-1308 -44 -1009 3 -1094 5 -1149 21 -305 91 -497 296 -535 571 -12 86 -16
3168 -4 3179 3 4 785 6 1737 5 l1731 -3 0 -1595z"/>
<path d="M1880 3628 c-31 -16 -51 -36 -67 -67 l-23 -44 0 -1106 c0 -1057 1
-1108 19 -1147 25 -55 71 -87 135 -92 59 -4 105 20 143 77 l23 34 0 1127 0
1127 -22 33 c-53 77 -130 99 -208 58z"/>
<path d="M3110 3639 c-14 -6 -36 -20 -48 -32 -55 -51 -52 12 -52 -1200 l0
-1124 23 -34 c12 -18 38 -44 57 -57 47 -32 123 -27 173 11 71 54 68 -14 65
1222 l-3 1110 -23 37 c-38 62 -127 93 -192 67z"/>
</g>
</svg>
